<svg width="16" height="13" viewBox="0 0 16 13" fill="none">
<path id="path18" fill-rule="evenodd" clip-rule="evenodd" d="M12.2497 2.81738C13.3281 3.81483 13.9941 5.20361 13.9941 6.72273C13.9941 9.2624 12.1387 11.4108 9.61749 12.0629L10.0773 12.6H13.8672C15.1913 11.2804 16 9.50797 16 7.57439C16 4.36729 13.78 1.62813 10.6879 0.600006L8.00003 8.88647L5.31219 0.600006C2.22003 1.62813 0 4.36729 0 7.57439C0 9.50797 0.808773 11.2804 2.13281 12.6H5.91481L6.38259 12.0629H6.37467C3.85334 11.4108 1.99807 9.2624 1.99807 6.72273C1.99807 5.20361 2.66405 3.82245 3.74232 2.81738C3.84539 2.70228 4.05154 2.64091 4.24977 2.6716C4.44801 2.71 4.63829 2.84044 4.73342 3.1243L7.69872 12.2624C7.79385 12.2701 7.89696 12.2701 8.00003 12.2701C8.10306 12.2701 8.19823 12.2701 8.3013 12.2624L11.2667 3.11658C11.3459 2.88647 11.5124 2.73296 11.7106 2.67932C11.885 2.64091 12.0753 2.67932 12.2497 2.81738Z" fill="#FF2532"/>
</svg>
