<svg width="24" height="25" viewBox="0 0 24 25" fill="none">
<g id="&#208;&#152;&#208;&#186;&#208;&#190;&#208;&#189;&#208;&#186;&#208;&#184; &#209;&#128;&#208;&#181;&#209;&#129;&#209;&#131;&#209;&#128;&#209;&#129;&#208;&#190;&#208;&#178;">
<g id="Group 47286">
<path id="path2995-1-0" d="M23 13C23 19.0775 18.0775 24 12 24C5.9225 24 1 19.0775 1 13C1 6.9225 5.9225 2 12 2C18.0775 2 23 6.9225 23 13Z" fill="url(#paint0_linear_57_611)"/>
<path id="path2993" d="M9.98262 18.0421C9.62512 18.0421 9.68929 17.9046 9.56095 17.5654L8.51596 14.1188L15.0059 10.0671L15.7668 10.2688L15.1343 11.9921L9.98262 18.0421Z" fill="#C8DAEA"/>
<path id="path2989" d="M9.98401 18.0416C10.259 18.0416 10.3782 17.9133 10.534 17.7666C10.7724 17.5375 13.8341 14.5583 13.8341 14.5583L11.9549 14.1L10.2132 15.2L9.98401 17.95V18.0416Z" fill="#A9C9DD"/>
<path id="path2991" d="M10.1677 15.2368L14.6044 18.5093C15.1086 18.7843 15.4753 18.6468 15.6036 18.0418L17.4094 9.53504C17.5928 8.79253 17.1253 8.46253 16.6394 8.68253L6.04268 12.7709C5.31851 13.0642 5.32768 13.4676 5.91435 13.6417L8.63687 14.4942L14.9344 10.525C15.2278 10.3417 15.5028 10.4425 15.2828 10.6442L10.1677 15.2368Z" fill="url(#paint1_linear_57_611)"/>
</g>
</g>
<defs>
<linearGradient id="paint0_linear_57_611" x1="15.2239" y1="5.47692" x2="9.72392" y2="18.3101" gradientUnits="userSpaceOnUse">
<stop stop-color="#37AEE2"/>
<stop offset="1" stop-color="#1E96C8"/>
</linearGradient>
<linearGradient id="paint1_linear_57_611" x1="12.8252" y1="13.3443" x2="15.1169" y2="17.011" gradientUnits="userSpaceOnUse">
<stop stop-color="#EFF7FC"/>
<stop offset="1" stop-color="white"/>
</linearGradient>
</defs>
</svg>
