<svg width="24" height="25" viewBox="0 0 24 25" fill="none">
<g id="&#208;&#152;&#208;&#186;&#208;&#190;&#208;&#189;&#208;&#186;&#208;&#184; &#209;&#128;&#208;&#181;&#209;&#129;&#209;&#131;&#209;&#128;&#209;&#129;&#208;&#190;&#208;&#178;">
<path id="Vector" d="M11.9991 1.55997C5.9117 1.55997 0.959056 6.51261 0.959056 12.6C0.959056 14.5008 1.4501 16.3699 2.3813 18.0192L0.976816 23.0304C0.930736 23.195 0.975376 23.3716 1.09442 23.494C1.1861 23.5886 1.3109 23.64 1.43906 23.64C1.47746 23.64 1.51634 23.6352 1.55426 23.626L6.78434 22.3305C8.3813 23.1878 10.1799 23.64 11.9991 23.64C18.0864 23.64 23.0391 18.6873 23.0391 12.6C23.0391 6.51261 18.0864 1.55997 11.9991 1.55997ZM17.5527 16.4956C17.3165 17.1494 16.1837 17.746 15.6394 17.8262C15.1507 17.8977 14.5325 17.9284 13.8538 17.7153C13.4424 17.5857 12.9144 17.4139 12.2381 17.1254C9.39505 15.9129 7.53842 13.0862 7.39634 12.8995C7.25474 12.7128 6.23906 11.3822 6.23906 10.0051C6.23906 8.62797 6.97106 7.95069 7.23122 7.67037C7.49138 7.39005 7.7981 7.31997 7.98722 7.31997C8.17634 7.31997 8.36498 7.32237 8.53058 7.33005C8.70482 7.33869 8.93858 7.26429 9.1685 7.81053C9.40466 8.37117 9.97154 9.74829 10.0416 9.88893C10.1127 10.0291 10.1597 10.1928 10.0656 10.3795C9.97154 10.5662 9.9245 10.6828 9.78242 10.8465C9.64034 11.0102 9.48482 11.2113 9.35714 11.3371C9.21506 11.4768 9.0677 11.628 9.23282 11.9083C9.39793 12.1886 9.96673 13.1049 10.8096 13.847C11.892 14.8003 12.8055 15.096 13.0887 15.2361C13.3719 15.3763 13.5375 15.3528 13.7026 15.166C13.8677 14.9788 14.4111 14.3486 14.5997 14.0688C14.7883 13.7889 14.9775 13.835 15.2376 13.9286C15.4978 14.0217 16.8912 14.6985 17.1744 14.8387C17.4576 14.9788 17.6467 15.0489 17.7178 15.1656C17.7888 15.2817 17.7888 15.8424 17.5527 16.4956Z" fill="#06C645"/>
</g>
</svg>
